<?xml version="1.0" encoding="UTF-8" standalone="no"?>
<!-- Created with Inkscape (http://www.inkscape.org/) -->

<svg
   version="1.1"
   id="svg1"
   width="500"
   height="500"
   viewBox="0 0 500 500"
   sodipodi:docname="rocket-icon.svg"
   inkscape:version="1.4 (86a8ad7, 2024-10-11)"
   xmlns:inkscape="http://www.inkscape.org/namespaces/inkscape"
   xmlns:sodipodi="http://sodipodi.sourceforge.net/DTD/sodipodi-0.dtd"
   xmlns="http://www.w3.org/2000/svg"
   xmlns:svg="http://www.w3.org/2000/svg">
  <defs
     id="defs1" />
  <sodipodi:namedview
     id="namedview1"
     pagecolor="#ffffff"
     bordercolor="#000000"
     borderopacity="0.25"
     inkscape:showpageshadow="2"
     inkscape:pageopacity="0.0"
     inkscape:pagecheckerboard="0"
     inkscape:deskcolor="#d1d1d1"
     showgrid="false"
     inkscape:zoom="1.2322514"
     inkscape:cx="421.9918"
     inkscape:cy="289.7136"
     inkscape:window-width="3840"
     inkscape:window-height="2036"
     inkscape:window-x="-12"
     inkscape:window-y="-12"
     inkscape:window-maximized="1"
     inkscape:current-layer="g1" />
  <g
     inkscape:groupmode="layer"
     inkscape:label="Image"
     id="g1">
    <path
       style="fill:#ffffff;stroke-width:1.3923"
       d="m 208.61401,458.35244 c -3.39613,-1.37762 -21.55665,-20.38038 -21.55665,-22.5564 0,-0.84876 5.07618,-18.15798 11.2804,-38.46494 l 11.28041,-36.92173 -36.1197,-36.11971 -36.11969,-36.11969 -36.77002,11.32082 c -20.223503,6.22645 -38.055074,11 -39.625696,10.60789 -1.570633,-0.39211 -7.437758,-5.43843 -13.038063,-11.21404 -7.870284,-8.11666 -10.045309,-11.21808 -9.578779,-13.65856 1.098715,-5.74763 59.86898,-105.09321 63.019618,-106.52873 1.63442,-0.74469 25.0137,-2.4807 51.95398,-3.85782 l 48.98232,-2.50381 10.11945,-11.90734 c 14.66056,-17.2508 47.19841,-50.37251 61.02831,-62.123444 49.87289,-42.375787 90.23083,-57.69214 161.417,-61.259827 18.21439,-0.912861 18.92084,-0.843038 22.82822,2.256447 5.6864,4.510675 3.15227,21.545199 3.15227,21.545199 -4.41165,91.987635 -34.8743,147.727285 -122.04924,223.322145 -6.50901,5.64435 -12.25006,11.25836 -12.75789,12.47554 -0.50784,1.21719 -1.9735,23.82854 -3.25704,50.24745 -1.47114,30.28055 -2.93098,48.94285 -3.94972,50.49233 -1.7283,2.62873 -103.4477,62.34405 -105.94465,62.19577 -0.81743,-0.0486 -2.75009,-0.60093 -4.29484,-1.22755 z M 384.60967,149.08822 c 14.31492,-3.06999 24.90775,-17.36777 23.52544,-31.75371 -2.36943,-24.659054 -31.67918,-36.588403 -49.76053,-20.252984 -7.06836,6.385824 -10.0895,13.121924 -10.17665,22.690424 -0.1331,14.61302 8.85734,25.97802 23.33929,29.50363 5.91991,1.44121 5.44718,1.44797 13.07245,-0.18736 z M 58.965696,438.78374 c -1.531524,-1.53154 -2.784597,-3.47925 -2.784597,-4.32826 0,-1.37693 10.411666,-21.81812 22.970775,-45.09841 2.478657,-4.5946 8.741277,-16.49877 13.916949,-26.45372 30.830187,-59.29927 29.893257,-57.78048 35.644647,-57.78048 3.49865,0 8.62881,4.46494 34.01655,29.60573 26.0593,25.80579 29.89655,30.15633 29.89655,33.89558 0,5.58737 -1.50822,6.76728 -22.97296,17.97203 -9.95495,5.19657 -33.7633,17.73167 -52.90743,27.85579 -42.011863,22.2174 -51.688916,27.11635 -53.56387,27.11635 -0.787607,0 -2.68508,-1.25308 -4.216614,-2.78461 z"
       id="path1"
       sodipodi:nodetypes="ssscccsssssscssssssssssssssssssssssssssss" />
  </g>
</svg>
